FILE "Nils Holgerssons wunderbare Reise mit den Wildgänsen.mp3" MP3
  TRACK 01 AUDIO
    TITLE "Kapitel 1"
    INDEX 01 00:00:00
  TRACK 02 AUDIO
    TITLE "Kapitel 2"
    INDEX 01 13:18:00
  TRACK 03 AUDIO
    TITLE "Kapitel 3"
    INDEX 01 28:25:00
  TRACK 04 AUDIO
    TITLE "Kapitel 4"
    INDEX 01 36:46:00
  TRACK 05 AUDIO
    TITLE "Kapitel 5"
    INDEX 01 56:16:00
  TRACK 06 AUDIO
    TITLE "Kapitel 6"
    INDEX 01 64:39:00
